<svg xmlns="http://www.w3.org/2000/svg" width="17.56" height="21.5" viewBox="0 0 17.56 21.5">
  <g id="Frame_53" data-name="Frame 53" transform="translate(-294.22 -13.25)">
    <g id="Frame_4" data-name="Frame 4" transform="translate(279)">
      <g id="Huge-icon_interface_outline_notification_2" data-name="Huge-icon/interface/outline/notification 2" transform="translate(12 12)">
        <path id="Vector" d="M16,3a3,3,0,1,1-3-3A3,3,0,0,1,16,3Z" transform="translate(4 2)" fill="none" stroke="#101817" stroke-linecap="round" stroke-width="1.5"/>
        <path id="Vector-2" data-name="Vector" d="M7.072,2.069A6.469,6.469,0,0,0,1.68,7.794l-.345,3.044A3.817,3.817,0,0,1,.455,12.88,1.887,1.887,0,0,0,1.83,16H14.17a1.887,1.887,0,0,0,1.375-3.12,3.817,3.817,0,0,1-.879-2.042l-.228-2.012M11,18a3.176,3.176,0,0,1-3,2,3.176,3.176,0,0,1-3-2" transform="translate(4 2)" fill="none" stroke="#101817" stroke-linecap="round" stroke-width="1.5"/>
      </g>
    </g>
  </g>
</svg>
