<svg xmlns="http://www.w3.org/2000/svg" width="21.5" height="21.5" viewBox="0 0 21.5 21.5">
  <g id="Huge-icon_ecommerce_outline_cart_3" data-name="Huge-icon/ecommerce/outline/cart 3" transform="translate(-1.25 -1.25)">
    <path id="Rectangle_1055" data-name="Rectangle 1055" d="M4,2H16a4,4,0,0,1,4,4v5a4,4,0,0,1-4,4H8a4,4,0,0,1-4-4Z" transform="translate(2 2)" fill="none" stroke="#000" stroke-linecap="round" stroke-linejoin="round" stroke-width="1.5"/>
    <path id="Rectangle_1055-2" data-name="Rectangle 1055" d="M4,2A2,2,0,0,0,2,0H0" transform="translate(2 2)" fill="none" stroke="#000" stroke-linecap="round" stroke-linejoin="round" stroke-width="1.5"/>
    <path id="Ellipse_655" data-name="Ellipse 655" d="M3,1.5A1.5,1.5,0,1,1,1.5,0,1.5,1.5,0,0,1,3,1.5Z" transform="translate(8 19)" fill="none" stroke="#000" stroke-width="1.5"/>
    <path id="Ellipse_656" data-name="Ellipse 656" d="M3,1.5A1.5,1.5,0,1,1,1.5,0,1.5,1.5,0,0,1,3,1.5Z" transform="translate(17 19)" fill="none" stroke="#000" stroke-width="1.5"/>
    <path id="Vector_1781" data-name="Vector 1781" d="M0,0C2.356,1.34,3.648,1.326,6,0" transform="translate(11 12)" fill="none" stroke="#000" stroke-linecap="round" stroke-linejoin="round" stroke-width="1.5"/>
  </g>
</svg>
