<svg xmlns="http://www.w3.org/2000/svg" width="21" height="21" viewBox="0 0 21 21">
  <path id="Path_33" data-name="Path 33" d="M23,15.5a2.251,2.251,0,0,0-2.25-2.25H15.5a2.251,2.251,0,0,0-2.25,2.25v5.25A2.251,2.251,0,0,0,15.5,23h5.25A2.251,2.251,0,0,0,23,20.75Zm-11.25,0A2.251,2.251,0,0,0,9.5,13.25H4.25A2.251,2.251,0,0,0,2,15.5v5.25A2.251,2.251,0,0,0,4.25,23H9.5a2.251,2.251,0,0,0,2.25-2.25Zm9.75,0v5.25a.748.748,0,0,1-.75.75H15.5a.748.748,0,0,1-.75-.75V15.5a.748.748,0,0,1,.75-.75h5.25a.748.748,0,0,1,.75.75Zm-11.25,0v5.25a.748.748,0,0,1-.75.75H4.25a.748.748,0,0,1-.75-.75V15.5a.748.748,0,0,1,.75-.75H9.5a.748.748,0,0,1,.75.75Zm1.5-11.25A2.251,2.251,0,0,0,9.5,2H4.25A2.251,2.251,0,0,0,2,4.25V9.5a2.251,2.251,0,0,0,2.25,2.25H9.5A2.251,2.251,0,0,0,11.75,9.5ZM23,4.25A2.251,2.251,0,0,0,20.75,2H15.5a2.251,2.251,0,0,0-2.25,2.25V9.5a2.251,2.251,0,0,0,2.25,2.25h5.25A2.251,2.251,0,0,0,23,9.5Zm-12.75,0V9.5a.748.748,0,0,1-.75.75H4.25A.748.748,0,0,1,3.5,9.5V4.25a.748.748,0,0,1,.75-.75H9.5a.748.748,0,0,1,.75.75Zm11.25,0V9.5a.748.748,0,0,1-.75.75H15.5a.748.748,0,0,1-.75-.75V4.25a.748.748,0,0,1,.75-.75h5.25a.748.748,0,0,1,.75.75Z" transform="translate(-2 -2)" fill-rule="evenodd"/>
</svg>
